<svg xmlns="http://www.w3.org/2000/svg" width="100" height="100.047" viewBox="0 0 26.458 26.471"><path d="M11.12 26.307c-4.067-.633-7.811-3.367-9.685-7.073C-2.22 12.006 1.386 3.252 9.08.674c7.699-2.579 16.014 2.517 17.226 10.557 1.337 8.87-6.307 16.459-15.187 15.076zm5.104-.764c2.46-.633 4.099-1.573 5.918-3.392 1.81-1.81 2.734-3.416 3.403-5.918.257-.958.29-1.295.29-2.996 0-1.7-.033-2.037-.29-2.995-.67-2.502-1.592-4.107-3.403-5.918-1.81-1.81-3.416-2.734-5.918-3.403C15.267.664 14.93.63 13.23.63c-1.7 0-2.038.033-2.996.29-2.502.67-4.107 1.592-5.918 3.403-1.81 1.81-2.733 3.416-3.403 5.918-.256.958-.289 1.295-.289 2.995 0 1.7.033 2.038.29 2.996.615 2.302 1.557 4.016 3.094 5.63.531.56 1.302 1.27 1.713 1.579 1.45 1.094 3.788 2.06 5.705 2.36 1.186.184 3.58.055 4.8-.259zm-8.86-8.236c-.97-.304-1.563-1.008-1.702-2.022l-.073-.526h1.47l.128.51c.31 1.227 1.949 1.29 2.448.095.12-.287.156-1.119.156-3.645V8.447h1.477l-.034 3.579c-.033 3.457-.043 3.594-.287 4.051-.602 1.126-2.182 1.669-3.582 1.23zm7.996.03c-.677-.153-1.627-.766-1.983-1.282-.171-.248-.345-.666-.385-.93l-.074-.479h.775l.776.001.169.535c.143.453.247.575.676.796.424.217.644.254 1.336.222.771-.035.852-.063 1.156-.403.375-.42.43-.952.142-1.364-.167-.238-1.231-.801-1.513-.801-.063 0-.509-.153-.992-.34-.94-.362-1.717-.94-2-1.485-.22-.428-.225-1.44-.007-1.857.773-1.48 3.437-1.977 5.067-.944.564.359 1.068 1.108 1.171 1.743l.066.403h-1.583l-.07-.377c-.127-.673-.763-1.089-1.666-1.088-.81 0-1.352.281-1.515.785-.27.834.13 1.247 1.704 1.764 1.753.575 2.5 1.067 2.887 1.903.42.907.133 2.016-.688 2.666-.712.562-2.255.8-3.449.531z" fill="#9e9e9e"/></svg>