<svg xmlns="http://www.w3.org/2000/svg" width="100" height="100" viewBox="0 0 26.458 26.458"><path d="M12.363 26.445a28.46 28.46 0 0 1-.695-.073c-5.023-.582-9.31-4.04-10.969-8.85a13.796 13.796 0 0 1-.651-2.906c-.064-.54-.064-2.241 0-2.78.364-3.103 1.662-5.81 3.82-7.966C5.993 1.745 8.636.46 11.686.07c.736-.094 2.346-.094 3.082 0 3.05.39 5.693 1.675 7.82 3.8 2.125 2.125 3.41 4.766 3.8 7.815.094.736.094 2.345 0 3.08-.39 3.05-1.675 5.691-3.8 7.816a13.168 13.168 0 0 1-7.664 3.777c-.55.073-2.087.126-2.561.088zm1.849-.58a12.652 12.652 0 0 0 7.976-3.682 12.643 12.643 0 0 0 0-17.915C17.245-.673 9.272-.692 4.311 4.225-.691 9.183-.712 17.21 4.264 22.18c2.632 2.628 6.294 3.985 9.948 3.685zm-7.073-4.521a.777.777 0 0 1-.355-.372c-.028-.074-.04-2.359-.04-7.477l.001-7.37.085-.15a.663.663 0 0 1 .49-.336c.294-.038 11.62-.962 11.77-.96a.62.62 0 0 1 .534.337l.087.17v7.358c0 7.085-.002 7.364-.07 7.514a.806.806 0 0 1-.148.225c-.105.093-.333.17-.506.173l-.14.002v.208c0 .114-.024.262-.052.328a.76.76 0 0 1-.374.363c-.073.028-1.817.04-5.638.038-4.538 0-5.552-.01-5.644-.051zm10.834-7.816c.008-5.804 0-7.292-.038-7.316-.026-.016-2.407-.03-5.292-.03-4.03 0-5.255.01-5.29.044-.035.035-.045 1.7-.045 7.267 0 3.972.01 7.248.023 7.281.02.054.514.059 5.327.05l5.305-.01zm-8.58 5.562c-.267-.12-.394-.379-.393-.8.001-.425.143-.691.424-.798.148-.056 6.331-.056 6.479 0a.76.76 0 0 1 .373.363c.069.159.069.726 0 .885a.76.76 0 0 1-.373.363c-.17.064-6.363.052-6.51-.014zm6.353-.793v-.263H9.582l-.012.222c-.007.121-.003.244.009.272.016.043.521.05 3.093.042l3.074-.01zm-3.686-3.152a3.516 3.516 0 0 1-1.01-.33 3.15 3.15 0 0 1-.918-.648 3.638 3.638 0 0 1-1.01-1.704c-.085-.316-.098-.44-.098-.928 0-.488.013-.613.098-.929a4.03 4.03 0 0 1 .572-1.213c.185-.259.635-.702.886-.873.31-.21.784-.426 1.155-.526.316-.084.44-.097.929-.097.489 0 .612.012.93.098a3.534 3.534 0 0 1 1.601.907 3.638 3.638 0 0 1 1.01 1.705c.085.315.098.44.098.928 0 .488-.013.612-.098.928a3.639 3.639 0 0 1-1.01 1.704c-.478.46-.984.745-1.6.904-.455.117-1.138.15-1.535.075zm1.353-.603c.61-.166.986-.384 1.43-.828.449-.449.664-.822.836-1.451.09-.332.09-1.125 0-1.456-.172-.63-.387-1.003-.836-1.451-.448-.448-.821-.663-1.451-.835-.332-.09-1.125-.09-1.457 0-.63.172-1.003.387-1.451.835-.349.349-.525.605-.68.99-.177.437-.221.673-.221 1.189 0 .846.246 1.488.802 2.091a3.14 3.14 0 0 0 1.752.968c.262.051 1.008.021 1.276-.052zm5.689 5.307c.07-.07.065-14.564-.005-14.59-.027-.01-.987.063-2.133.165l-2.084.185 1.537.004c1.084.002 1.582.018 1.689.05a.632.632 0 0 1 .435.48c.03.135.042 2.196.042 6.971v6.78h.236c.134 0 .257-.02.282-.045z" fill="#9d9d9d"/></svg>