<svg xmlns="http://www.w3.org/2000/svg" width="100" height="100.021" viewBox="0 0 26.458 26.464"><path d="M12.554 26.457c-1.254-.082-2.312-.278-3.4-.631a13.295 13.295 0 0 1-6.37-4.471C1.22 19.347.31 17.051.04 14.435c-.055-.523-.055-1.888 0-2.412.22-2.12.84-3.978 1.91-5.718a12.886 12.886 0 0 1 1.914-2.42A13.165 13.165 0 0 1 10.627.248C11.567.06 12.203 0 13.23 0c1.028 0 1.664.06 2.604.248 3.922.782 7.305 3.334 9.16 6.91a13.27 13.27 0 0 1 1.342 4.178c.102.704.122 1.025.122 1.893 0 .868-.02 1.19-.122 1.894a13.272 13.272 0 0 1-6.321 9.472 13.21 13.21 0 0 1-5.579 1.821 22.34 22.34 0 0 1-1.882.041zm1.961-.616a12.33 12.33 0 0 0 2.637-.557c4.288-1.39 7.555-5.025 8.485-9.44.088-.419.171-.97.22-1.454.055-.55.055-1.771 0-2.321-.165-1.648-.587-3.116-1.302-4.531A12.71 12.71 0 0 0 15.157.699c-.7-.107-1.1-.135-1.927-.135-.826 0-1.227.028-1.927.135C5.851 1.536 1.537 5.851.7 11.302c-.107.703-.136 1.101-.136 1.927 0 .827.029 1.225.136 1.927a12.685 12.685 0 0 0 5.192 8.404 12.698 12.698 0 0 0 6.685 2.334c.4.022 1.523-.009 1.938-.053zm-7.264-5.05a1.414 1.414 0 0 1-1.02-1.028c-.057-.222-.063-.94-.01-1.192a1.428 1.428 0 0 1 1.092-1.084c.263-.054 1.061-.034 1.263.032.433.142.786.495.928.928.066.202.086 1 .032 1.263-.11.53-.512.947-1.042 1.082-.248.064-1 .063-1.243 0zm1.257-.599a.858.858 0 0 0 .415-.415l.07-.146v-.971l-.073-.148a.94.94 0 0 0-.43-.421c-.127-.06-.135-.06-.613-.06-.48 0-.486 0-.614.06a.963.963 0 0 0-.437.43l-.065.14v.97l.07.146c.078.164.22.318.357.389.19.097.252.106.723.1l.45-.004zm2.75-1.046v-.563h9.016v1.127h-9.016zm-3.962-3.978a1.43 1.43 0 0 1-1.075-1.083c-.053-.25-.047-.968.01-1.191.122-.48.45-.83.941-1.01.185-.068 1.022-.088 1.28-.03.546.121.97.55 1.084 1.094.055.262.034 1.06-.032 1.262-.141.43-.469.76-.91.919-.157.056-.19.06-.66.065-.364.004-.534-.003-.638-.026zm1.215-.614a.94.94 0 0 0 .421-.43c.06-.127.06-.134.06-.613v-.485l-.069-.146a.857.857 0 0 0-.415-.415c-.146-.07-.149-.07-.58-.077-.492-.008-.61.013-.805.144a.808.808 0 0 0-.301.366c-.06.127-.06.135-.06.613s0 .487.06.613a.908.908 0 0 0 .558.484c.07.02.24.027.543.024l.44-.005zm2.747-1.043v-.563h9.016v1.127h-9.016zM7.376 9.545a1.435 1.435 0 0 1-1.128-.981c-.046-.145-.05-.203-.05-.7 0-.532 0-.543.062-.715a1.422 1.422 0 0 1 1.02-.93c.127-.03.256-.035.664-.03.482.009.516.012.672.069.35.126.635.379.796.705.137.278.16.435.15.992-.007.443-.012.484-.067.639a1.44 1.44 0 0 1-.93.906c-.138.044-.216.051-.62.057a5.296 5.296 0 0 1-.57-.012zm1.093-.607a.912.912 0 0 0 .45-.426l.074-.15V7.39l-.072-.15a.866.866 0 0 0-.403-.415c-.132-.065-.141-.066-.573-.073-.513-.01-.618.008-.81.131a.807.807 0 0 0-.342.456c-.042.137-.046.196-.04.586.008.415.011.44.068.563a.98.98 0 0 0 .345.39c.177.104.304.124.756.117.37-.006.431-.012.547-.058zm2.789-1.062v-.563h9.016V8.44h-9.016z" fill="#9d9d9d"/></svg>