<?xml version="1.0" encoding="UTF-8" standalone="no"?>
<!-- Created with Inkscape (http://www.inkscape.org/) -->

<svg
   xmlns:dc="http://purl.org/dc/elements/1.1/"
   xmlns:cc="http://creativecommons.org/ns#"
   xmlns:rdf="http://www.w3.org/1999/02/22-rdf-syntax-ns#"
   xmlns:svg="http://www.w3.org/2000/svg"
   xmlns="http://www.w3.org/2000/svg"
   xmlns:sodipodi="http://sodipodi.sourceforge.net/DTD/sodipodi-0.dtd"
   xmlns:inkscape="http://www.inkscape.org/namespaces/inkscape"
   width="26.458328mm"
   height="26.45833mm"
   viewBox="0 0 26.458328 26.45833"
   version="1.1"
   id="svg8"
   sodipodi:docname="icon_book.svg"
   inkscape:version="0.92.1 r15371">
  <defs
     id="defs2" />
  <sodipodi:namedview
     id="base"
     pagecolor="#ffffff"
     bordercolor="#666666"
     borderopacity="1.0"
     inkscape:pageopacity="0.0"
     inkscape:pageshadow="2"
     inkscape:zoom="1.979899"
     inkscape:cx="241.66108"
     inkscape:cy="98.40118"
     inkscape:document-units="mm"
     inkscape:current-layer="layer1"
     showgrid="false"
     inkscape:window-width="1920"
     inkscape:window-height="1001"
     inkscape:window-x="-9"
     inkscape:window-y="-9"
     inkscape:window-maximized="1"
     fit-margin-top="0"
     fit-margin-left="0"
     fit-margin-right="0"
     fit-margin-bottom="0" />
  <metadata
     id="metadata5">
    <rdf:RDF>
      <cc:Work
         rdf:about="">
        <dc:format>image/svg+xml</dc:format>
        <dc:type
           rdf:resource="http://purl.org/dc/dcmitype/StillImage" />
        <dc:title></dc:title>
      </cc:Work>
    </rdf:RDF>
  </metadata>
  <g
     inkscape:label="Layer 1"
     inkscape:groupmode="layer"
     id="layer1"
     transform="translate(-90.318801,-154.83531)">
    <path
       style="fill:#9d9d9d;stroke-width:0.03757749"
       d="m 102.68171,181.28078 c -0.10336,-0.008 -0.41626,-0.0416 -0.69533,-0.0738 -5.022663,-0.58134 -9.309596,-4.04039 -10.968239,-8.8501 -0.314912,-0.91316 -0.530566,-1.87468 -0.65179,-2.90607 -0.0634,-0.5394 -0.0634,-2.24074 0,-2.78014 0.36467,-3.10263 1.662611,-5.80909 3.820132,-7.96568 2.125771,-2.1249 4.768653,-3.40905 7.818687,-3.79903 0.73613,-0.0942 2.34588,-0.0942 3.082,0 3.05003,0.38998 5.69292,1.67413 7.8187,3.79903 2.12576,2.12485 3.41045,4.76663 3.80061,7.8154 0.0942,0.73582 0.0942,2.3449 0,3.0807 -0.39016,3.04877 -1.67485,5.69054 -3.80061,7.81542 -2.0889,2.08801 -4.72124,3.38541 -7.66284,3.77681 -0.54982,0.0732 -2.0868,0.1256 -2.56132,0.0876 z m 1.84903,-0.57988 c 3.0453,-0.2502 5.82745,-1.53476 7.97649,-3.68289 4.96051,-4.95843 4.96051,-12.95619 0,-17.91462 -4.94359,-4.94153 -12.916514,-4.96079 -17.877605,-0.0432 -5.002,4.95815 -5.022984,12.98623 -0.04694,17.95574 2.632166,2.62871 6.294125,3.98519 9.948045,3.68499 z m -7.073403,-4.52207 c -0.14006,-0.0624 -0.30185,-0.23212 -0.35467,-0.37184 -0.02776,-0.0734 -0.03978,-2.35863 -0.03936,-7.47636 l 6.36e-4,-7.37061 0.08452,-0.1492 c 0.1057,-0.1866 0.286462,-0.3107 0.490172,-0.33668 0.293976,-0.0376 11.619855,-0.96171 11.770875,-0.96051 0.21824,0.002 0.4294,0.1356 0.53348,0.33808 l 0.0868,0.169 -1e-4,7.35822 c -1.2e-4,7.0851 -0.002,7.364 -0.0698,7.51392 -0.0384,0.0856 -0.1048,0.1868 -0.1478,0.22502 -0.1048,0.093 -0.33328,0.1712 -0.50593,0.1732 l -0.14094,0.002 v 0.20784 c 0,0.1144 -0.0232,0.26224 -0.0517,0.32874 -0.0626,0.1462 -0.22955,0.30832 -0.37353,0.3627 -0.0731,0.0276 -1.81716,0.0396 -5.63781,0.0384 -4.538246,-9.6e-4 -5.552257,-0.01 -5.644757,-0.0518 z m 10.834093,-7.8153 c 0.008,-5.80419 -9e-5,-7.29231 -0.0375,-7.31611 -0.0259,-0.016 -2.40735,-0.0302 -5.29212,-0.0304 -4.030004,-4.2e-4 -5.255485,0.01 -5.290139,0.0446 -0.03476,0.0348 -0.0451,1.69998 -0.0451,7.26665 0,3.97187 0.0102,7.24838 0.02286,7.28112 0.02074,0.054 0.514644,0.0586 5.327729,0.05 l 5.30486,-0.01 z m -8.578972,5.56135 c -0.267456,-0.1188 -0.395012,-0.37808 -0.39382,-0.80046 0.0012,-0.42416 0.14302,-0.69048 0.424454,-0.79706 0.1473,-0.0558 6.330878,-0.0558 6.478598,-1.2e-4 0.14398,0.0544 0.31095,0.2165 0.37352,0.3627 0.0682,0.1592 0.0682,0.72608 0,0.88532 -0.0626,0.1462 -0.22954,0.3083 -0.37352,0.3627 -0.1706,0.0644 -6.362776,0.052 -6.509232,-0.014 z m 6.351932,-0.79228 v -0.263 h -3.08201 -3.081992 l -0.0114,0.22122 c -0.0068,0.1216 -0.0028,0.24434 0.0086,0.2726 0.0166,0.043 0.521402,0.0498 3.093422,0.0418 l 3.0737,-0.01 z m -3.68526,-3.15184 c -0.4188,-0.0802 -0.6894,-0.1684 -1.01065,-0.32988 -0.40423,-0.20313 -0.59183,-0.33569 -0.91781,-0.64849 -0.494014,-0.47408 -0.83466,-1.04874 -1.010136,-1.70406 -0.0846,-0.31594 -0.09766,-0.4401 -0.09766,-0.92826 0,-0.48818 0.013,-0.61234 0.09766,-0.92828 0.10878,-0.40622 0.32871,-0.87239 0.572376,-1.21319 0.18526,-0.25912 0.63502,-0.70232 0.88575,-0.87284 0.31019,-0.21096 0.78426,-0.42686 1.15508,-0.52606 0.31606,-0.0846 0.44027,-0.0976 0.92864,-0.0976 0.48921,0 0.61235,0.012 0.93093,0.0982 0.62376,0.1668 1.12519,0.45106 1.6008,0.90748 0.49401,0.47406 0.83466,1.04872 1.01014,1.70403 0.0846,0.31594 0.0977,0.4401 0.0977,0.92826 0,0.48818 -0.013,0.61234 -0.0977,0.92828 -0.17548,0.65532 -0.51613,1.22998 -1.01014,1.70406 -0.47869,0.45934 -0.98444,0.74495 -1.6008,0.90401 -0.45409,0.1172 -1.1371,0.1504 -1.53418,0.0744 z m 1.35265,-0.60333 c 0.60937,-0.1662 0.98588,-0.38432 1.43031,-0.82858 0.44846,-0.44826 0.66327,-0.82132 0.83535,-1.45072 0.0906,-0.33156 0.0906,-1.12458 0,-1.45614 -0.17208,-0.6294 -0.38689,-1.00245 -0.83535,-1.45071 -0.44845,-0.44826 -0.82166,-0.663 -1.45133,-0.835 -0.33169,-0.0906 -1.12505,-0.0906 -1.45674,0 -0.62967,0.172 -1.00288,0.38674 -1.45134,0.835 -0.34875,0.3486 -0.52474,0.6046 -0.68025,0.98941 -0.176702,0.4373 -0.220612,0.674 -0.220612,1.18936 0,0.84672 0.246022,1.4879 0.802452,2.09134 0.46859,0.5082 1.04926,0.82888 1.75192,0.96752 0.26195,0.0518 1.00775,0.0216 1.27559,-0.0514 z m 5.68898,5.30678 c 0.0696,-0.0696 0.0652,-14.56414 -0.005,-14.59082 -0.0273,-0.01 -0.98705,0.0644 -2.13297,0.166 l -2.08349,0.18499 1.53664,0.004 c 1.08349,0.002 1.58147,0.018 1.68864,0.0498 0.22098,0.0662 0.38587,0.24782 0.43567,0.47992 0.0291,0.1352 0.0412,2.19638 0.0412,6.97153 v 6.77948 h 0.23678 c 0.13406,0 0.25636,-0.02 0.28189,-0.0452 z"
       id="path50"
       inkscape:connector-curvature="0" />
  </g>
</svg>
