<?xml version="1.0" encoding="UTF-8" standalone="no"?>
<!-- Created with Inkscape (http://www.inkscape.org/) -->

<svg
   xmlns:dc="http://purl.org/dc/elements/1.1/"
   xmlns:cc="http://creativecommons.org/ns#"
   xmlns:rdf="http://www.w3.org/1999/02/22-rdf-syntax-ns#"
   xmlns:svg="http://www.w3.org/2000/svg"
   xmlns="http://www.w3.org/2000/svg"
   xmlns:sodipodi="http://sodipodi.sourceforge.net/DTD/sodipodi-0.dtd"
   xmlns:inkscape="http://www.inkscape.org/namespaces/inkscape"
   width="26.458334mm"
   height="26.470854mm"
   viewBox="0 0 26.458334 26.470854"
   version="1.1"
   id="svg8"
   sodipodi:docname="icon_js.svg"
   inkscape:version="0.92.1 r15371">
  <defs
     id="defs2" />
  <sodipodi:namedview
     id="base"
     pagecolor="#ffffff"
     bordercolor="#666666"
     borderopacity="1.0"
     inkscape:pageopacity="0.0"
     inkscape:pageshadow="2"
     inkscape:zoom="1.4"
     inkscape:cx="-26.868658"
     inkscape:cy="55.020869"
     inkscape:document-units="mm"
     inkscape:current-layer="layer1"
     showgrid="false"
     inkscape:window-width="1920"
     inkscape:window-height="1001"
     inkscape:window-x="-9"
     inkscape:window-y="-9"
     inkscape:window-maximized="1"
     fit-margin-top="0"
     fit-margin-left="0"
     fit-margin-right="0"
     fit-margin-bottom="0" />
  <metadata
     id="metadata5">
    <rdf:RDF>
      <cc:Work
         rdf:about="">
        <dc:format>image/svg+xml</dc:format>
        <dc:type
           rdf:resource="http://purl.org/dc/dcmitype/StillImage" />
        <dc:title></dc:title>
      </cc:Work>
    </rdf:RDF>
  </metadata>
  <g
     inkscape:label="Layer 1"
     inkscape:groupmode="layer"
     id="layer1"
     transform="translate(-60.477759,-165.73122)">
    <path
       style="fill:#9e9e9e;stroke-width:0.11272131"
       d="m 71.597027,192.03854 c -4.066578,-0.6332 -7.810559,-3.36763 -9.684158,-7.07286 -3.654965,-7.22806 -0.04877,-15.98283 7.645153,-18.56014 7.698569,-2.57887 16.013617,2.51682 17.225396,10.55621 1.33714,8.87107 -6.306434,16.45948 -15.186391,15.07679 z m 5.104962,-0.76408 c 2.459278,-0.63353 4.098808,-1.57341 5.917925,-3.39253 1.810605,-1.8106 2.73377,-3.41587 3.403311,-5.91792 0.256251,-0.9576 0.288779,-1.29504 0.288779,-2.99543 0,-1.70039 -0.03255,-2.03784 -0.288779,-2.99543 -0.669541,-2.50206 -1.592706,-4.10732 -3.403311,-5.91793 -1.810606,-1.8106 -3.415872,-2.73377 -5.917925,-3.40331 -0.957597,-0.25625 -1.29504,-0.28878 -2.99543,-0.28878 -1.70039,0 -2.037834,0.0325 -2.99543,0.28878 -2.502052,0.66954 -4.107319,1.59271 -5.917924,3.40331 -1.810605,1.81061 -2.733771,3.41587 -3.403311,5.91793 -0.25625,0.95759 -0.288782,1.29504 -0.288782,2.99543 0,1.70039 0.03253,2.03783 0.288782,2.99543 0.615949,2.30178 1.558128,4.01607 3.094652,5.63069 0.531687,0.55871 1.30241,1.26903 1.712719,1.57849 1.450877,1.09425 3.788491,2.0609 5.705753,2.35943 1.185672,0.18462 3.580207,0.0558 4.798971,-0.25816 z m -8.8593,-8.23594 c -0.971452,-0.30441 -1.564386,-1.00824 -1.703324,-2.02191 l -0.07214,-0.52629 h 0.734629 0.734628 l 0.128512,0.51036 c 0.308882,1.22668 1.948611,1.28984 2.448141,0.0943 0.119971,-0.28714 0.155422,-1.11842 0.155422,-3.64452 v -3.27254 h 0.738547 0.738547 l -0.03404,3.5789 c -0.03289,3.45785 -0.04258,3.59489 -0.28662,4.05144 -0.60185,1.12595 -2.182655,1.66884 -3.582304,1.23026 z m 7.995469,0.0293 c -0.677789,-0.15248 -1.627435,-0.76588 -1.983477,-1.28117 -0.171348,-0.24798 -0.344662,-0.66646 -0.38514,-0.92995 l -0.0736,-0.47906 0.775276,4.2e-4 0.775276,4.3e-4 0.169082,0.53483 c 0.143146,0.45279 0.246891,0.57481 0.676328,0.79544 0.423764,0.21771 0.643674,0.25435 1.336208,0.22266 0.771006,-0.0353 0.851784,-0.0635 1.155393,-0.40329 0.375545,-0.4203 0.430774,-0.95169 0.141795,-1.36427 -0.166231,-0.23727 -1.230997,-0.80099 -1.513034,-0.80099 -0.06223,0 -0.508526,-0.15248 -0.991772,-0.33884 -0.940257,-0.3626 -1.717138,-0.93996 -1.9995,-1.48599 -0.22106,-0.42748 -0.224934,-1.43966 -0.0071,-1.85682 0.773185,-1.48073 3.437296,-1.97689 5.066621,-0.9436 0.564712,0.35813 1.068589,1.10744 1.171613,1.7423 l 0.06542,0.40308 h -0.791253 -0.791253 l -0.07063,-0.3765 c -0.126282,-0.67314 -0.76263,-1.08897 -1.666048,-1.0887 -0.809291,2.3e-4 -1.351792,0.28156 -1.514655,0.78545 -0.269574,0.83405 0.129604,1.24715 1.704506,1.76397 1.752708,0.57517 2.499323,1.06743 2.886133,1.9029 0.42012,0.90741 0.133889,2.01636 -0.688067,2.66579 -0.711463,0.56212 -2.254835,0.80008 -3.448106,0.53163 z"
       id="path122"
       inkscape:connector-curvature="0" />
  </g>
</svg>
