<?xml version="1.0" encoding="UTF-8" standalone="no"?>
<!-- Created with Inkscape (http://www.inkscape.org/) -->

<svg
   xmlns:dc="http://purl.org/dc/elements/1.1/"
   xmlns:cc="http://creativecommons.org/ns#"
   xmlns:rdf="http://www.w3.org/1999/02/22-rdf-syntax-ns#"
   xmlns:svg="http://www.w3.org/2000/svg"
   xmlns="http://www.w3.org/2000/svg"
   xmlns:sodipodi="http://sodipodi.sourceforge.net/DTD/sodipodi-0.dtd"
   xmlns:inkscape="http://www.inkscape.org/namespaces/inkscape"
   width="26.458324mm"
   height="26.464005mm"
   viewBox="0 0 26.458324 26.464005"
   version="1.1"
   id="svg8"
   sodipodi:docname="icon_checkboxes.svg"
   inkscape:version="0.92.1 r15371">
  <defs
     id="defs2" />
  <sodipodi:namedview
     id="base"
     pagecolor="#ffffff"
     bordercolor="#666666"
     borderopacity="1.0"
     inkscape:pageopacity="0.0"
     inkscape:pageshadow="2"
     inkscape:zoom="5.6"
     inkscape:cx="76.872104"
     inkscape:cy="36.918487"
     inkscape:document-units="mm"
     inkscape:current-layer="layer1"
     showgrid="false"
     inkscape:window-width="1920"
     inkscape:window-height="1001"
     inkscape:window-x="-9"
     inkscape:window-y="-9"
     inkscape:window-maximized="1"
     fit-margin-top="0"
     fit-margin-left="0"
     fit-margin-right="0"
     fit-margin-bottom="0" />
  <metadata
     id="metadata5">
    <rdf:RDF>
      <cc:Work
         rdf:about="">
        <dc:format>image/svg+xml</dc:format>
        <dc:type
           rdf:resource="http://purl.org/dc/dcmitype/StillImage" />
        <dc:title></dc:title>
      </cc:Work>
    </rdf:RDF>
  </metadata>
  <g
     inkscape:label="Layer 1"
     inkscape:groupmode="layer"
     id="layer1"
     transform="translate(-60.487552,-164.81955)">
    <path
       style="fill:#9d9d9d;stroke-width:0.0225399"
       d="m 73.041577,191.27677 c -1.25385,-0.0822 -2.31158,-0.27865 -3.39969,-0.63144 -2.51238,-0.81456 -4.74493,-2.38125 -6.37094,-4.47082 -1.56252,-2.00799 -2.4724,-4.30347 -2.74282,-6.91975 -0.0541,-0.52349 -0.0541,-1.88828 0,-2.41177 0.21921,-2.12077 0.83916,-3.97797 1.909,-5.71881 0.54785,-0.89146 1.15113,-1.65381 1.91487,-2.41976 1.86281,-1.86821 4.20278,-3.12672 6.76242,-3.63703 0.93921,-0.18725 1.57567,-0.24784 2.60336,-0.24784 1.02769,0 1.66415,0.0606 2.60336,0.24784 3.9222,0.78196 7.30558,3.33404 9.16001,6.90938 0.67218,1.29596 1.13352,2.73218 1.3423,4.17875 0.10167,0.70443 0.12243,1.02547 0.12243,1.89335 0,0.86788 -0.0208,1.18892 -0.12243,1.89335 -0.56772,3.93353 -2.89014,7.41369 -6.32116,9.4723 -1.69231,1.01538 -3.56814,1.62782 -5.57863,1.82137 -0.35346,0.034 -1.58014,0.0607 -1.88208,0.0409 z m 1.96097,-0.6158 c 0.95495,-0.10134 1.74366,-0.26819 2.63717,-0.5579 4.28752,-1.39017 7.5544,-5.02484 8.4844,-9.43957 0.0882,-0.41888 0.17163,-0.97004 0.21997,-1.45382 0.055,-0.55039 0.055,-1.77123 0,-2.32161 -0.16458,-1.64713 -0.58642,-3.11563 -1.30143,-4.53052 -1.85352,-3.66785 -5.35964,-6.21918 -9.39772,-6.83854 -0.7002,-0.10739 -1.10053,-0.13555 -1.92716,-0.13555 -0.82663,0 -1.22696,0.0282 -1.92716,0.13555 -5.45166,0.83618 -9.76653,5.15104 -10.6027,10.6027 -0.10782,0.70295 -0.13587,1.10083 -0.13587,1.92716 0,0.82633 0.0281,1.22421 0.13587,1.92716 0.51808,3.37773 2.38396,6.39792 5.19159,8.40328 1.94772,1.39117 4.27056,2.20228 6.68461,2.33419 0.40106,0.0219 1.52352,-0.009 1.93843,-0.0525 z m -7.26426,-5.05038 c -0.50602,-0.13258 -0.88977,-0.51928 -1.01978,-1.02762 -0.0569,-0.22226 -0.0633,-0.94069 -0.0107,-1.19214 0.11172,-0.53396 0.55309,-0.97169 1.0932,-1.08417 0.26213,-0.0546 1.06099,-0.0345 1.26223,0.0317 0.43298,0.14251 0.78596,0.49549 0.92847,0.92847 0.0662,0.20124 0.0863,1.0001 0.0317,1.26223 -0.11035,0.52988 -0.51171,0.94704 -1.04156,1.08255 -0.24812,0.0635 -0.99983,0.0628 -1.24364,-0.001 z m 1.25738,-0.59902 c 0.1862,-0.0887 0.32621,-0.22866 0.41486,-0.41486 l 0.0697,-0.14651 v -0.48511 -0.48512 l -0.0731,-0.14837 c -0.088,-0.17869 -0.24923,-0.33698 -0.42917,-0.42132 -0.12727,-0.0597 -0.13499,-0.0604 -0.6135,-0.0604 -0.47921,0 -0.48605,6.8e-4 -0.61427,0.0608 -0.1814,0.085 -0.35729,0.25825 -0.43667,0.4301 l -0.0648,0.14025 v 0.4846 0.48461 l 0.0697,0.14651 c 0.0779,0.16368 0.21974,0.31794 0.35735,0.38872 0.1891,0.0973 0.25187,0.10602 0.72243,0.10085 l 0.4508,-0.005 z m 2.74987,-1.04598 v -0.56349 h 4.50798 4.50798 v 0.56349 0.5635 h -4.50798 -4.50798 z m -3.96232,-3.97779 c -0.53337,-0.11983 -0.96266,-0.55231 -1.07509,-1.08306 -0.0529,-0.24984 -0.0467,-0.96847 0.0104,-1.1915 0.12245,-0.47878 0.44957,-0.82992 0.9411,-1.01019 0.18502,-0.0679 1.02187,-0.0872 1.28077,-0.0296 0.54484,0.12121 0.96999,0.55051 1.08311,1.09367 0.0546,0.26214 0.0345,1.06099 -0.0317,1.26224 -0.14143,0.4297 -0.46905,0.76073 -0.90966,0.91914 -0.15711,0.0565 -0.18995,0.0597 -0.6612,0.0653 -0.36381,0.004 -0.53364,-0.003 -0.63768,-0.026 z m 1.21538,-0.61451 c 0.17864,-0.088 0.33695,-0.24928 0.42127,-0.42918 0.0597,-0.12726 0.0604,-0.13498 0.0604,-0.61349 v -0.48461 l -0.0697,-0.14651 c -0.0886,-0.1862 -0.22866,-0.32621 -0.41486,-0.41485 -0.14573,-0.0694 -0.1488,-0.0698 -0.57999,-0.0771 -0.49245,-0.008 -0.60934,0.0125 -0.8055,0.14366 -0.13593,0.0909 -0.21989,0.19301 -0.301,0.36605 -0.0596,0.12711 -0.0604,0.13497 -0.0604,0.61337 0,0.47763 8.6e-4,0.48645 0.06,0.61252 0.10895,0.2324 0.32418,0.41925 0.55829,0.48466 0.0709,0.0198 0.24036,0.0272 0.54311,0.0237 l 0.44009,-0.005 z m 2.74694,-1.04267 v -0.5635 h 4.50798 4.50798 v 0.5635 0.5635 h -4.50798 -4.50798 z m -3.88234,-3.96654 c -0.5379,-0.0968 -0.96559,-0.46877 -1.12788,-0.98097 -0.0459,-0.14473 -0.05,-0.20251 -0.05,-0.69874 0,-0.53276 9.4e-4,-0.54361 0.062,-0.71628 0.16812,-0.47509 0.54692,-0.82054 1.0198,-0.93 0.12713,-0.0294 0.25603,-0.035 0.66492,-0.0286 0.48163,0.008 0.51554,0.0109 0.67192,0.0676 0.34978,0.12669 0.63436,0.37919 0.79535,0.70567 0.13687,0.27755 0.16083,0.43511 0.15082,0.99175 -0.008,0.44278 -0.0123,0.48402 -0.0678,0.63866 -0.15911,0.44328 -0.49147,0.76724 -0.93032,0.9068 -0.13795,0.0439 -0.21586,0.051 -0.61985,0.0568 -0.25414,0.004 -0.51017,-0.002 -0.56897,-0.0127 z m 1.09295,-0.60632 c 0.18034,-0.071 0.35819,-0.2395 0.45033,-0.42662 l 0.0738,-0.14987 v -0.48512 -0.48511 l -0.0716,-0.15104 c -0.0878,-0.18526 -0.22641,-0.32778 -0.40319,-0.41446 -0.13169,-0.0646 -0.14089,-0.0657 -0.57337,-0.0733 -0.51275,-0.009 -0.61753,0.008 -0.80883,0.13174 -0.16893,0.10919 -0.2817,0.25919 -0.34281,0.45597 -0.0424,0.13648 -0.0463,0.19552 -0.0394,0.58604 0.007,0.41471 0.0105,0.44003 0.0677,0.56219 0.0706,0.15072 0.21603,0.31571 0.34494,0.39125 0.17643,0.1034 0.30357,0.12289 0.75583,0.11584 0.37072,-0.006 0.43136,-0.0121 0.54652,-0.0575 z m 2.78939,-1.06212 v -0.56349 h 4.50798 4.50798 v 0.56349 0.5635 h -4.50798 -4.50798 z"
       id="path96"
       inkscape:connector-curvature="0" />
  </g>
</svg>
